<?xml version="1.0" standalone="no"?><!DOCTYPE svg PUBLIC "-//W3C//DTD SVG 1.1//EN" "http://www.w3.org/Graphics/SVG/1.1/DTD/svg11.dtd"><svg t="1568970690708" class="icon" viewBox="0 0 1024 1024" version="1.1" xmlns="http://www.w3.org/2000/svg" p-id="3191" xmlns:xlink="http://www.w3.org/1999/xlink" width="200" height="200"><defs><style type="text/css"></style></defs><path d="M60.6 961.7l11.5-34.3c14-41.6 35.1-80 62.6-114.2 8.2-10.5 31.4-36.9 60.6-70.3 37.4-42.7 83.9-95.8 118.9-138.1l12.5-15.1 96.8 95.6v16.9l-6.4 5.4c-38.1 32.3-84.5 73.1-125.4 109.1-39.7 34.9-71.1 62.5-82.8 71.7-34.2 27.3-72.7 48.2-114.2 62.1l-34.1 11.2z m268.8-318.8c-33.4 39.7-73.8 85.8-107 123.8-27.9 31.8-51.9 59.3-59.5 68.9l-0.2 0.2c-16.2 20.1-29.9 41.9-41 65 23.1-11 44.8-24.6 64.9-40.7l0.1-0.1c10.8-8.5 43.4-37.2 81.2-70.4 36-31.7 76.2-67 111.4-97.2l-49.9-49.5z m308.4 198.3c-17.7 0-34.9-6.4-48.3-18l-1-0.9-389.3-392-0.4-0.5c-26.6-30.7-23.3-77.3 7.3-103.9 13.4-11.6 30.5-18 48.3-18 17.7 0 34.9 6.4 48.3 18l1 0.9 54.8 55.2L627 192l-0.3-0.3c-14.5-12.9-23.2-30.5-24.6-49.9-1.4-19.6 5-38.6 17.9-53.5 26.6-30.7 73.2-33.9 103.9-7.3 2.4 2.1 4.7 4.4 6.8 6.8l205.8 203.8c14.6 12.9 23.3 30.6 24.7 50 1.4 19.6-5 38.6-17.9 53.5-12.9 14.9-30.8 23.8-50.4 25.2-19.6 1.4-38.6-5-53.5-17.9-2.1-1.9-4.2-3.9-6.1-6l-4.7-3.7L637.3 663l55.8 55.8 0.4 0.5c26.6 30.7 23.3 77.3-7.3 103.9-13.5 11.6-30.6 18-48.4 18z m-24.2-44.9c14.1 11.8 35 11.7 48.9-0.4 15.5-13.5 17.3-37 4.1-52.7L590.3 667l230.8-325.9 37.1 29.1 1.1 1.3c1.2 1.3 2.4 2.6 3.7 3.7 7.6 6.6 17.3 9.8 27.3 9.1 10-0.7 19.2-5.3 25.8-12.9 6.6-7.6 9.8-17.3 9.1-27.3-0.7-10-5.3-19.2-12.9-25.8l-0.9-0.8-206.9-205-0.5-0.5c-1.2-1.3-2.4-2.6-3.7-3.7-15.7-13.6-39.5-11.9-53.1 3.7-6.6 7.6-9.8 17.3-9.1 27.3s5.3 19.2 12.9 25.8l0.6 0.5 30.5 31.5-327.7 232.1-75.8-76.4c-14.1-11.8-35-11.7-48.9 0.4-15.5 13.5-17.3 37-4.1 52.7l388 390.4z" p-id="3192" fill="#ffffff"></path></svg>